<svg version="1.2" xmlns="http://www.w3.org/2000/svg" viewBox="0 0 473 110" width="473" height="110">
	<title>logoTop-svg</title>
	<style>
		tspan { white-space:pre } 
		.s0 { fill: #20c997 } 
		.s1 { fill: #f7f7fa } 
		.t2 { font-size: 107px;fill: #ffffff;font-weight: 400;font-family: "Dekko", "Dekko" } 
	</style>
	<g id="Layer">
		<g id="2">
			<g id="1">
				<g id="Layer">
					<path id="Layer" fill-rule="evenodd" class="s0" d="m101.8 30.5c1.2 1.1 1.2 3 0 4.2l-28.6 28.6c-1.2 1.1-3 1.1-4.2 0l-28.6-28.6c-1.2-1.2-1.2-3.1 0-4.2l28.6-28.6c1.2-1.2 3-1.2 4.2 0zm-28.5-23.6q-1.1-0.4-2.3-0.4-1.1 0-2.2 0.4-1 0.4-1.9 1.3-0.8 0.8-1.2 1.8-0.5 1.1-0.5 2.3 0 1.1 0.5 2.2 0.4 1 1.2 1.9 0.9 0.8 1.9 1.2 1.1 0.5 2.2 0.5 1.2 0 2.3-0.5 1-0.4 1.8-1.2 0.9-0.9 1.3-1.9 0.4-1.1 0.4-2.2 0-1.2-0.4-2.3-0.4-1-1.3-1.8-0.8-0.9-1.8-1.3zm20.2 20.3q-1-0.5-2.2-0.5-1.1 0-2.2 0.5-1.1 0.4-1.9 1.2-0.8 0.8-1.3 1.9-0.4 1.1-0.4 2.2 0 1.2 0.4 2.2 0.5 1.1 1.3 1.9 0.8 0.8 1.9 1.3 1.1 0.4 2.2 0.4 1.2 0 2.2-0.4 1.1-0.5 1.9-1.3 0.8-0.8 1.3-1.9 0.4-1 0.4-2.2 0-1.1-0.4-2.2-0.5-1.1-1.3-1.9-0.8-0.8-1.9-1.2zm-20.2 0q-1-0.4-2.2-0.4-1.1 0-2.2 0.4-1.1 0.5-1.9 1.3-0.8 0.8-1.2 1.9-0.5 1-0.5 2.2 0 1.1 0.5 2.2 0.4 1.1 1.2 1.9 0.8 0.8 1.9 1.2 1.1 0.5 2.2 0.5 1.2 0 2.2-0.5 1.1-0.4 1.9-1.2 0.8-0.8 1.3-1.9 0.4-1.1 0.4-2.2 0-1.2-0.4-2.2-0.5-1.1-1.3-1.9-0.8-0.8-1.9-1.3zm-20.3 0q-1.1-0.5-2.2-0.5-1.2 0-2.2 0.5-1.1 0.4-1.9 1.2-0.8 0.8-1.3 1.9-0.4 1.1-0.4 2.2 0 1.2 0.4 2.2 0.5 1.1 1.3 1.9 0.8 0.8 1.9 1.3 1 0.4 2.2 0.4 1.1 0 2.2-0.4 1.1-0.5 1.9-1.3 0.8-0.8 1.2-1.9 0.5-1 0.5-2.2 0-1.1-0.5-2.2-0.4-1.1-1.2-1.9-0.8-0.8-1.9-1.2zm20.3 20.2q-1.1-0.4-2.3-0.4-1.1 0-2.2 0.4-1 0.5-1.9 1.3-0.8 0.8-1.2 1.9-0.5 1-0.5 2.2 0 1.1 0.5 2.2 0.4 1.1 1.2 1.9 0.9 0.8 1.9 1.2 1.1 0.5 2.2 0.5 1.2 0 2.3-0.5 1-0.4 1.8-1.2 0.9-0.8 1.3-1.9 0.4-1.1 0.4-2.2 0-1.2-0.4-2.2-0.4-1.1-1.3-1.9-0.8-0.8-1.8-1.3z"/>
					<g id="Layer">
						<g id="Layer">
							<path id="Layer" fill-rule="evenodd" class="s1" d="m100.6 46.2l7.2-7.2c0.7-0.7 1.9-0.7 2.6 0l31.3 31.3c0.7 0.7 0.7 1.9 0 2.6l-7.2 7.2c-0.7 0.7-1.9 0.7-2.6 0l-31.3-31.3c-0.7-0.7-0.7-1.9 0-2.6z"/>
							<path id="Layer" fill-rule="evenodd" class="s1" d="m110.4 39.2l7.2 7.2c0.7 0.7 0.7 1.9 0 2.7l-31.3 31.2c-0.7 0.7-1.9 0.7-2.6 0l-7.2-7.1c-0.7-0.8-0.7-2 0-2.7l31.3-31.3c0.7-0.7 1.9-0.7 2.6 0z"/>
							<path id="Layer" fill-rule="evenodd" class="s1" d="m24.6 46.2l7.2-7.2c0.7-0.7 1.9-0.7 2.7 0l31.2 31.3c0.7 0.7 0.7 1.9 0 2.6l-7.1 7.2c-0.8 0.7-2 0.7-2.7 0l-31.3-31.3c-0.7-0.7-0.7-1.9 0-2.6z"/>
							<path id="Layer" fill-rule="evenodd" class="s1" d="m34.5 39.2l7.1 7.2c0.8 0.7 0.8 1.9 0 2.7l-31.2 31.2c-0.8 0.7-2 0.7-2.7 0l-7.1-7.1c-0.8-0.8-0.8-2 0-2.7l31.2-31.3c0.7-0.7 1.9-0.7 2.7 0z"/>
						</g>
						<path id="Layer" fill-rule="evenodd" class="s1" d="m77.7 70.5c2.1 1.1 4 2.5 5.6 4.4 1.6 1.9 2.9 4.1 3.8 6.6 0.8 2.4 1.3 5.1 1.3 7.7 0 2.7-0.5 5.3-1.3 7.8-0.9 2.4-2.2 4.7-3.8 6.5-1.6 1.9-3.5 3.4-5.6 4.4-2.1 1.1-4.4 1.6-6.6 1.6-2.3 0-4.5-0.5-6.6-1.6-2.1-1-4-2.5-5.7-4.4-1.6-1.8-2.8-4.1-3.7-6.5-0.9-2.5-1.3-5.1-1.3-7.8 0-2.6 0.4-5.3 1.3-7.7 0.9-2.5 2.1-4.7 3.7-6.6 1.7-1.9 3.6-3.3 5.7-4.4 2.1-1 4.3-1.5 6.6-1.5 2.2 0 4.5 0.5 6.6 1.5zm-8.1 11.6q-0.7 0.6-1.3 1.7-0.5 1.1-0.8 2.5-0.3 1.4-0.3 2.9 0 1.6 0.3 3 0.3 1.4 0.8 2.5 0.6 1 1.3 1.6 0.7 0.6 1.5 0.6 0.8 0 1.5-0.6 0.7-0.6 1.2-1.6 0.6-1.1 0.9-2.5 0.3-1.4 0.3-3 0-1.5-0.3-2.9-0.3-1.4-0.9-2.5-0.5-1.1-1.2-1.7-0.7-0.5-1.5-0.5-0.8 0-1.5 0.5z"/>
					</g>
				</g>
				<g id="Layer">
					<g id="Layer">
					</g>
				</g>
			</g>
		</g>
		<text id="Plinko" style="transform: matrix(1,0,0,1,185,89)" >
			<tspan x="0" y="0" class="t2">P</tspan><tspan  y="0" class="t2">l</tspan><tspan  y="0" class="t2">i</tspan><tspan  y="0" class="t2">n</tspan><tspan  y="0" class="t2">k</tspan><tspan  y="0" class="t2">o</tspan><tspan  y="0" class="t2">
</tspan>
		</text>
	</g>
</svg>